<?xml version="1.0" encoding="UTF-8" standalone="no"?>
<!DOCTYPE svg PUBLIC "-//W3C//DTD SVG 1.1//EN"
 "http://www.w3.org/Graphics/SVG/1.1/DTD/svg11.dtd">
<!-- Generated by graphviz version 2.43.0 (0)
 -->
<!-- Title: AST Pages: 1 -->
<svg width="277pt" height="267pt"
 viewBox="0.00 0.00 276.70 267.48" xmlns="http://www.w3.org/2000/svg" xmlns:xlink="http://www.w3.org/1999/xlink">
<g id="graph0" class="graph" transform="scale(1 1) rotate(0) translate(4 263.48)">
<title>AST</title>
<polygon fill="white" stroke="transparent" points="-4,4 -4,-263.48 272.7,-263.48 272.7,4 -4,4"/>
<!-- node0 -->
<g id="node1" class="node">
<title>node0</title>
<ellipse fill="snow" stroke="black" cx="185.7" cy="-241.48" rx="27" ry="18"/>
<text text-anchor="middle" x="185.7" y="-237.78" font-family="Arial" font-size="14.00">link</text>
</g>
<!-- node1 -->
<g id="node2" class="node">
<title>node1</title>
<ellipse fill="snow" stroke="black" cx="136.7" cy="-138.61" rx="27" ry="26.74"/>
<text text-anchor="middle" x="136.7" y="-142.41" font-family="Arial" font-size="14.00">var</text>
<text text-anchor="middle" x="136.7" y="-127.41" font-family="Arial" font-size="14.00">a</text>
</g>
<!-- node0&#45;&gt;node1 -->
<g id="edge3" class="edge">
<title>node0&#45;&gt;node1</title>
<path fill="none" stroke="black" d="M177.61,-223.82C170.82,-209.85 160.92,-189.47 152.56,-172.26"/>
<polygon fill="black" stroke="black" points="155.62,-170.55 148.1,-163.08 149.32,-173.61 155.62,-170.55"/>
</g>
<!-- node4 -->
<g id="node5" class="node">
<title>node4</title>
<ellipse fill="snow" stroke="black" cx="237.7" cy="-138.61" rx="27.9" ry="18"/>
<text text-anchor="middle" x="237.7" y="-134.91" font-family="Arial" font-size="14.00">print</text>
</g>
<!-- node0&#45;&gt;node4 -->
<g id="edge5" class="edge">
<title>node0&#45;&gt;node4</title>
<path fill="none" stroke="black" d="M194.05,-224.27C202.27,-208.34 214.93,-183.77 224.51,-165.2"/>
<polygon fill="black" stroke="black" points="227.72,-166.6 229.19,-156.11 221.5,-163.4 227.72,-166.6"/>
</g>
<!-- node2 -->
<g id="node3" class="node">
<title>node2</title>
<ellipse fill="snow" stroke="black" cx="29.7" cy="-26.87" rx="29.9" ry="26.74"/>
<text text-anchor="middle" x="29.7" y="-30.67" font-family="Arial" font-size="14.00">type</text>
<text text-anchor="middle" x="29.7" y="-15.67" font-family="Arial" font-size="14.00">int</text>
</g>
<!-- node1&#45;&gt;node2 -->
<g id="edge1" class="edge">
<title>node1&#45;&gt;node2</title>
<path fill="none" stroke="black" d="M118.06,-118.49C100.86,-100.85 75.14,-74.47 55.88,-54.72"/>
<polygon fill="black" stroke="black" points="58.33,-52.22 48.84,-47.51 53.32,-57.11 58.33,-52.22"/>
</g>
<!-- node3 -->
<g id="node4" class="node">
<title>node3</title>
<ellipse fill="snow" stroke="black" cx="136.7" cy="-26.87" rx="34.8" ry="26.74"/>
<text text-anchor="middle" x="136.7" y="-30.67" font-family="Arial" font-size="14.00">literal</text>
<text text-anchor="middle" x="136.7" y="-15.67" font-family="Arial" font-size="14.00">15</text>
</g>
<!-- node1&#45;&gt;node3 -->
<g id="edge2" class="edge">
<title>node1&#45;&gt;node3</title>
<path fill="none" stroke="black" d="M136.7,-111.6C136.7,-97.49 136.7,-79.82 136.7,-64.36"/>
<polygon fill="black" stroke="black" points="140.2,-64.07 136.7,-54.07 133.2,-64.07 140.2,-64.07"/>
</g>
<!-- node5 -->
<g id="node6" class="node">
<title>node5</title>
<ellipse fill="snow" stroke="black" cx="241.7" cy="-26.87" rx="27" ry="26.74"/>
<text text-anchor="middle" x="241.7" y="-30.67" font-family="Arial" font-size="14.00">id</text>
<text text-anchor="middle" x="241.7" y="-15.67" font-family="Arial" font-size="14.00">a</text>
</g>
<!-- node4&#45;&gt;node5 -->
<g id="edge4" class="edge">
<title>node4&#45;&gt;node5</title>
<path fill="none" stroke="black" d="M238.32,-120.46C238.87,-105.41 239.69,-83.01 240.38,-64.01"/>
<polygon fill="black" stroke="black" points="243.88,-64 240.75,-53.88 236.89,-63.74 243.88,-64"/>
</g>
</g>
</svg>
