<?xml version="1.0" encoding="UTF-8" standalone="no"?>
<!DOCTYPE svg PUBLIC "-//W3C//DTD SVG 1.1//EN"
 "http://www.w3.org/Graphics/SVG/1.1/DTD/svg11.dtd">
<!-- Generated by graphviz version 2.43.0 (0)
 -->
<!-- Title: AST Pages: 1 -->
<svg width="505pt" height="473pt"
 viewBox="0.00 0.00 505.36 473.22" xmlns="http://www.w3.org/2000/svg" xmlns:xlink="http://www.w3.org/1999/xlink">
<g id="graph0" class="graph" transform="scale(1 1) rotate(0) translate(4 469.22)">
<title>AST</title>
<polygon fill="white" stroke="transparent" points="-4,4 -4,-469.22 501.36,-469.22 501.36,4 -4,4"/>
<!-- node0 -->
<g id="node1" class="node">
<title>node0</title>
<ellipse fill="snow" stroke="black" cx="409.36" cy="-447.22" rx="27" ry="18"/>
<text text-anchor="middle" x="409.36" y="-443.52" font-family="Arial" font-size="14.00">link</text>
</g>
<!-- node1 -->
<g id="node2" class="node">
<title>node1</title>
<ellipse fill="snow" stroke="black" cx="360.36" cy="-353.22" rx="27" ry="18"/>
<text text-anchor="middle" x="360.36" y="-349.52" font-family="Arial" font-size="14.00">link</text>
</g>
<!-- node0&#45;&gt;node1 -->
<g id="edge10" class="edge">
<title>node0&#45;&gt;node1</title>
<path fill="none" stroke="black" d="M400.6,-429.77C393.14,-415.77 382.31,-395.44 373.77,-379.4"/>
<polygon fill="black" stroke="black" points="376.83,-377.71 369.04,-370.53 370.65,-381 376.83,-377.71"/>
</g>
<!-- node11 -->
<g id="node12" class="node">
<title>node11</title>
<ellipse fill="snow" stroke="black" cx="464.36" cy="-353.22" rx="27.9" ry="18"/>
<text text-anchor="middle" x="464.36" y="-349.52" font-family="Arial" font-size="14.00">print</text>
</g>
<!-- node0&#45;&gt;node11 -->
<g id="edge12" class="edge">
<title>node0&#45;&gt;node11</title>
<path fill="none" stroke="black" d="M418.94,-430.2C427.32,-416.17 439.65,-395.55 449.35,-379.33"/>
<polygon fill="black" stroke="black" points="452.57,-380.75 454.7,-370.37 446.56,-377.16 452.57,-380.75"/>
</g>
<!-- node2 -->
<g id="node3" class="node">
<title>node2</title>
<ellipse fill="snow" stroke="black" cx="250.36" cy="-250.35" rx="27" ry="18"/>
<text text-anchor="middle" x="250.36" y="-246.65" font-family="Arial" font-size="14.00">link</text>
</g>
<!-- node1&#45;&gt;node2 -->
<g id="edge6" class="edge">
<title>node1&#45;&gt;node2</title>
<path fill="none" stroke="black" d="M345.06,-338.19C326.34,-321.03 294.49,-291.82 272.95,-272.07"/>
<polygon fill="black" stroke="black" points="275.26,-269.44 265.52,-265.26 270.53,-274.59 275.26,-269.44"/>
</g>
<!-- node8 -->
<g id="node9" class="node">
<title>node8</title>
<ellipse fill="snow" stroke="black" cx="360.36" cy="-250.35" rx="39.7" ry="26.74"/>
<text text-anchor="middle" x="360.36" y="-254.15" font-family="Arial" font-size="14.00">assign</text>
<text text-anchor="middle" x="360.36" y="-239.15" font-family="Arial" font-size="14.00">=</text>
</g>
<!-- node1&#45;&gt;node8 -->
<g id="edge9" class="edge">
<title>node1&#45;&gt;node8</title>
<path fill="none" stroke="black" d="M360.36,-335.11C360.36,-322.11 360.36,-303.76 360.36,-287.54"/>
<polygon fill="black" stroke="black" points="363.86,-287.28 360.36,-277.28 356.86,-287.28 363.86,-287.28"/>
</g>
<!-- node3 -->
<g id="node4" class="node">
<title>node3</title>
<ellipse fill="snow" stroke="black" cx="151.36" cy="-138.61" rx="27" ry="26.74"/>
<text text-anchor="middle" x="151.36" y="-142.41" font-family="Arial" font-size="14.00">var</text>
<text text-anchor="middle" x="151.36" y="-127.41" font-family="Arial" font-size="14.00">a</text>
</g>
<!-- node2&#45;&gt;node3 -->
<g id="edge3" class="edge">
<title>node2&#45;&gt;node3</title>
<path fill="none" stroke="black" d="M237,-234.55C221.4,-217.25 195.25,-188.27 175.94,-166.87"/>
<polygon fill="black" stroke="black" points="178.47,-164.44 169.17,-159.36 173.27,-169.13 178.47,-164.44"/>
</g>
<!-- node6 -->
<g id="node7" class="node">
<title>node6</title>
<ellipse fill="snow" stroke="black" cx="253.36" cy="-138.61" rx="27.9" ry="18"/>
<text text-anchor="middle" x="253.36" y="-134.91" font-family="Arial" font-size="14.00">print</text>
</g>
<!-- node2&#45;&gt;node6 -->
<g id="edge5" class="edge">
<title>node2&#45;&gt;node6</title>
<path fill="none" stroke="black" d="M250.82,-232.2C251.3,-214.73 252.05,-187.36 252.61,-166.9"/>
<polygon fill="black" stroke="black" points="256.12,-166.73 252.89,-156.64 249.12,-166.54 256.12,-166.73"/>
</g>
<!-- node4 -->
<g id="node5" class="node">
<title>node4</title>
<ellipse fill="snow" stroke="black" cx="35.36" cy="-26.87" rx="35.21" ry="26.74"/>
<text text-anchor="middle" x="35.36" y="-30.67" font-family="Arial" font-size="14.00">type</text>
<text text-anchor="middle" x="35.36" y="-15.67" font-family="Arial" font-size="14.00">string</text>
</g>
<!-- node3&#45;&gt;node4 -->
<g id="edge1" class="edge">
<title>node3&#45;&gt;node4</title>
<path fill="none" stroke="black" d="M132.2,-119.49C113.75,-102.03 85.58,-75.39 64.37,-55.32"/>
<polygon fill="black" stroke="black" points="66.58,-52.59 56.91,-48.26 61.77,-57.67 66.58,-52.59"/>
</g>
<!-- node5 -->
<g id="node6" class="node">
<title>node5</title>
<ellipse fill="snow" stroke="black" cx="151.36" cy="-26.87" rx="37.45" ry="26.74"/>
<text text-anchor="middle" x="151.36" y="-30.67" font-family="Arial" font-size="14.00">literal</text>
<text text-anchor="middle" x="151.36" y="-15.67" font-family="Arial" font-size="14.00">&quot;hola&quot;</text>
</g>
<!-- node3&#45;&gt;node5 -->
<g id="edge2" class="edge">
<title>node3&#45;&gt;node5</title>
<path fill="none" stroke="black" d="M151.36,-111.6C151.36,-97.49 151.36,-79.82 151.36,-64.36"/>
<polygon fill="black" stroke="black" points="154.86,-64.07 151.36,-54.07 147.86,-64.07 154.86,-64.07"/>
</g>
<!-- node7 -->
<g id="node8" class="node">
<title>node7</title>
<ellipse fill="snow" stroke="black" cx="258.36" cy="-26.87" rx="27" ry="26.74"/>
<text text-anchor="middle" x="258.36" y="-30.67" font-family="Arial" font-size="14.00">id</text>
<text text-anchor="middle" x="258.36" y="-15.67" font-family="Arial" font-size="14.00">a</text>
</g>
<!-- node6&#45;&gt;node7 -->
<g id="edge4" class="edge">
<title>node6&#45;&gt;node7</title>
<path fill="none" stroke="black" d="M254.14,-120.46C254.82,-105.41 255.84,-83.01 256.71,-64.01"/>
<polygon fill="black" stroke="black" points="260.21,-64.03 257.17,-53.88 253.22,-63.71 260.21,-64.03"/>
</g>
<!-- node9 -->
<g id="node10" class="node">
<title>node9</title>
<ellipse fill="snow" stroke="black" cx="357.36" cy="-138.61" rx="27" ry="26.74"/>
<text text-anchor="middle" x="357.36" y="-142.41" font-family="Arial" font-size="14.00">id</text>
<text text-anchor="middle" x="357.36" y="-127.41" font-family="Arial" font-size="14.00">a</text>
</g>
<!-- node8&#45;&gt;node9 -->
<g id="edge7" class="edge">
<title>node8&#45;&gt;node9</title>
<path fill="none" stroke="black" d="M359.64,-223.34C359.26,-209.23 358.78,-191.56 358.35,-176.1"/>
<polygon fill="black" stroke="black" points="361.84,-175.71 358.07,-165.81 354.85,-175.9 361.84,-175.71"/>
</g>
<!-- node10 -->
<g id="node11" class="node">
<title>node10</title>
<ellipse fill="snow" stroke="black" cx="462.36" cy="-138.61" rx="34.8" ry="26.74"/>
<text text-anchor="middle" x="462.36" y="-142.41" font-family="Arial" font-size="14.00">literal</text>
<text text-anchor="middle" x="462.36" y="-127.41" font-family="Arial" font-size="14.00">&quot;a&quot;</text>
</g>
<!-- node8&#45;&gt;node10 -->
<g id="edge8" class="edge">
<title>node8&#45;&gt;node10</title>
<path fill="none" stroke="black" d="M381,-227.14C396.68,-210.26 418.4,-186.9 435.45,-168.56"/>
<polygon fill="black" stroke="black" points="438.19,-170.75 442.44,-161.04 433.07,-165.98 438.19,-170.75"/>
</g>
<!-- node12 -->
<g id="node13" class="node">
<title>node12</title>
<ellipse fill="snow" stroke="black" cx="470.36" cy="-250.35" rx="27" ry="26.74"/>
<text text-anchor="middle" x="470.36" y="-254.15" font-family="Arial" font-size="14.00">id</text>
<text text-anchor="middle" x="470.36" y="-239.15" font-family="Arial" font-size="14.00">a</text>
</g>
<!-- node11&#45;&gt;node12 -->
<g id="edge11" class="edge">
<title>node11&#45;&gt;node12</title>
<path fill="none" stroke="black" d="M465.37,-335.11C466.15,-322.11 467.24,-303.76 468.2,-287.54"/>
<polygon fill="black" stroke="black" points="471.71,-287.47 468.81,-277.28 464.73,-287.05 471.71,-287.47"/>
</g>
</g>
</svg>
